<svg xmlns="http://www.w3.org/2000/svg" id="Layer_2" data-name="Layer 2" viewBox="0 0 492.18 146"><defs><style>.cls-8{fill:#231f20;font-family:&quot;MinionConceptRoman_493.000wght_0ital&quot;,&quot;Minion Variable Concept&quot;;font-size:57.21px;font-variation-settings:&quot;wght&quot;493,&quot;opsz&quot;11}</style></defs><g id="Layer_1-2" data-name="Layer 1"><text style="font-family:FranklinGothic-Heavy,&quot;Franklin Gothic Heavy&quot;;font-size:50.36px;font-weight:800;letter-spacing:.13em" transform="matrix(1.14 0 0 1 136.75 121.56)"><tspan x="0" y="0">CLINIC</tspan></text><text class="cls-8" transform="rotate(-7.48 632.573 -142.011)"><tspan x="0" y="0">P</tspan></text><text class="cls-8" transform="rotate(-4.18 1081.165 -735.41)"><tspan x="0" y="0">H</tspan></text><text class="cls-8" transform="rotate(-2.73 1597.993 -2098.415)"><tspan x="0" y="0">I</tspan></text><text class="cls-8" transform="rotate(-1.88 2276.616 -3710.707)"><tspan x="0" y="0">L</tspan></text><text class="cls-8" transform="rotate(-.96 4349.07 -9446.46)"><tspan x="0" y="0">A</tspan></text><text class="cls-8" transform="rotate(-.13 31354.373 -85762.73)"><tspan x="0" y="0">N</tspan></text><text class="cls-8" transform="rotate(.67 -5939.226 20476.958)"><tspan x="0" y="0">T</tspan></text><text class="cls-8" transform="rotate(1.5 -2583.58 10563.314)"><tspan x="0" y="0">H</tspan></text><text class="cls-8" transform="rotate(2.46 -1527.082 7514.049)"><tspan x="0" y="0">R</tspan></text><text class="cls-8" transform="rotate(3.72 -960.045 5534.822)"><tspan x="0" y="0">O</tspan></text><text class="cls-8" transform="rotate(5.71 -569.64 4051.89)"><tspan x="0" y="0">P</tspan></text><text class="cls-8" transform="rotate(9.85 -247.422 2565.2)"><tspan x="0" y="0">Y</tspan></text></g></svg>